# xmcd
#
# Track frame offsets: 
#        150
#        12051
#        24131
#        34304
#        45590
#        58123
#        69757
#        81755
#        92750
#        105102
#        118191
#        131212
#        141981
#        153957
#        166842
#        179009
#        191565
#        204060
#        216431
#        228414
#        241487
#        254281
#        266520
#        278646
#        292938
#
# Disc length: 4064 seconds
#
# Revision: 2
# Processed by: cddbd v1.5.2PL0 Copyright (c) Steve Scherf et al.
# Submitted via: ExactAudioCopyFreeDBPlugin 1.0
#
DISCID=560fde19
DTITLE=The Platters - 2003 - The Singles+ Cd 1
DYEAR=2003
DGENRE=Doo-Wop
TTITLE0=Only You [And You Alone]
TTITLE1=The Great Pretender
TTITLE2=I´m Just A Dancing Partner
TTITLE3=[You´ve Got] The Magic Touch
TTITLE4=My Prayer
TTITLE5=Heaven On Earth
TTITLE6=You´ll Never Never Know
TTITLE7=It Isn´t Right
TTITLE8=On My Word Of Honour
TTITLE9=One In A Million
TTITLE10=I´m Sorry
TTITLE11=He´s Mine
TTITLE12=My Dream
TTITLE13=Only Because
TTITLE14=Helpless
TTITLE15=Twilight Time
TTITLE16=You´re Making A Mistake
TTITLE17=I Wish
TTITLE18=Smoke Gets in Your Eyes
TTITLE19=Enchanted
TTITLE20=Remember When
TTITLE21=Where
TTITLE22=Wish It Were Me
TTITLE23=Harbor Lights
TTITLE24=Sleepy Lagoon
EXTD=
EXTT0=
EXTT1=
EXTT2=
EXTT3=
EXTT4=
EXTT5=
EXTT6=
EXTT7=
EXTT8=
EXTT9=
EXTT10=
EXTT11=
EXTT12=
EXTT13=
EXTT14=
EXTT15=
EXTT16=
EXTT17=
EXTT18=
EXTT19=
EXTT20=
EXTT21=
EXTT22=
EXTT23=
EXTT24=
PLAYORDER=
